HIERARCHY
ROOT Hips
{
	OFFSET 0.000000 0.000000 0.000000
	CHANNELS 6 Xposition Yposition Zposition Zrotation Yrotation Xrotation 
	JOINT LowerBack
	{
		OFFSET 0.000000 0.000000 0.000000
		CHANNELS 3 Zrotation Yrotation Xrotation
		JOINT Spine
		{
			OFFSET 0.028270 2.035590 -0.193380
			CHANNELS 3 Zrotation Yrotation Xrotation
			JOINT Spine1
			{
				OFFSET 0.056720 2.048850 -0.042750
				CHANNELS 3 Zrotation Yrotation Xrotation
				JOINT Neck
				{
					OFFSET 0.000000 0.000000 0.000000
					CHANNELS 3 Zrotation Yrotation Xrotation
					JOINT Neck1
					{
						OFFSET -0.054170 1.746240 0.172020
						CHANNELS 3 Zrotation Yrotation Xrotation
						JOINT Head
						{
							OFFSET 0.104070 1.761360 -0.123970
							CHANNELS 3 Zrotation Yrotation Xrotation
							End Site
							{
								OFFSET 0.000000 0.000000 0.000000
							}
						}
					}
				}
				JOINT LeftShoulder
				{
					OFFSET 0.000000 0.000000 0.000000
					CHANNELS 3 Zrotation Yrotation Xrotation
					JOINT LeftArm
					{
						OFFSET 3.362410 1.200890 -0.311210
						CHANNELS 3 Zrotation Yrotation Xrotation
						JOINT LeftForeArm
						{
							OFFSET 4.983000 -0.000000 -0.000000
							CHANNELS 3 Zrotation Yrotation Xrotation
							JOINT LeftHand
							{
								OFFSET 3.483560 -0.000000 -0.000000
								CHANNELS 3 Zrotation Yrotation Xrotation
								JOINT LeftFingerBase
								{
									OFFSET 0.000000 0.000000 0.000000
									CHANNELS 3 Zrotation Yrotation Xrotation
									JOINT LeftHandIndex1
									{
										OFFSET 0.715260 -0.000000 -0.000000
										CHANNELS 3 Zrotation Yrotation Xrotation
										End Site
										{
											OFFSET 0.000000 0.000000 0.000000
										}
									}
								}
								JOINT LThumb
								{
									OFFSET 0.000000 0.000000 0.000000
									CHANNELS 3 Zrotation Yrotation Xrotation
									End Site
									{
										OFFSET 0.000000 0.000000 0.000000
									}
								}
							}
						}
					}
				}
				JOINT RightShoulder
				{
					OFFSET 0.000000 0.000000 0.000000
					CHANNELS 3 Zrotation Yrotation Xrotation
					JOINT RightArm
					{
						OFFSET -3.136600 1.374050 -0.404650
						CHANNELS 3 Zrotation Yrotation Xrotation
						JOINT RightForeArm
						{
							OFFSET -5.241900 -0.000000 -0.000000
							CHANNELS 3 Zrotation Yrotation Xrotation
							JOINT RightHand
							{
								OFFSET -3.444170 -0.000000 -0.000000
								CHANNELS 3 Zrotation Yrotation Xrotation
								JOINT RightFingerBase
								{
									OFFSET 0.000000 0.000000 0.000000
									CHANNELS 3 Zrotation Yrotation Xrotation
									JOINT RightHandIndex1
									{
										OFFSET -0.622530 -0.000000 -0.000000
										CHANNELS 3 Zrotation Yrotation Xrotation
										End Site
										{
											OFFSET 0.000000 0.000000 0.000000
										}
									}
								}
								JOINT RThumb
								{
									OFFSET 0.000000 0.000000 0.000000
									CHANNELS 3 Zrotation Yrotation Xrotation
									End Site
									{
										OFFSET 0.000000 0.000000 0.000000
									}
								}
							}
						}
					}
				}
			}
		}
	}
}
}
MOTION
Frames: 15
Frame Time: 0.008333
15.684116 15.669641 2.310847 2.172364 -87.872895 26.111964 6.928245 -4.493096 5.674808 0.852609 -4.795145 -1.398793 -5.759166 -4.805385 1.444072 11.002390 -19.352415 -13.013324 -2.152084 -0.062170 -1.830793 0.000000 0.000000 0.000000 11.071982 8.779277 1.101277 -43.745708 -12.720369 -7.611707 -179.238466 -76.198454 -179.976312 -2.672937 4.829554 -0.103501 0.033363 0.436394 0.000000 0.000000 0.000000 0.000000 0.000000 0.000000 0.000000 12.316456 -16.473144 2.755410 67.197467 -16.829991 1.048451 1.746614 59.312158 0.014224 1.707412 6.286251 0.092821 0.072940 -0.155634 0.000000 0.000000 0.000000 0.000000 0.000000 0.000000 0.000000 
15.475033 15.640286 2.295270 2.590661 -87.885879 25.424074 7.359631 -4.523713 5.785670 0.957455 -4.831694 -1.385125 -5.721861 -4.841778 1.430662 10.884760 -19.314790 -13.025980 -2.195382 -0.066202 -1.832852 0.000000 0.000000 0.000000 10.967591 8.839448 1.125022 -44.289630 -11.802290 -7.290247 -179.193667 -75.671373 -179.974020 -2.952734 4.781762 -0.113330 0.038644 0.432785 0.000000 0.000000 0.000000 0.000000 0.000000 0.000000 0.000000 12.325819 -16.385976 2.719094 67.003745 -16.602218 0.899662 1.735792 59.775618 0.014394 1.801291 6.191049 0.096725 0.072817 -0.156831 0.000000 0.000000 0.000000 0.000000 0.000000 0.000000 0.000000 
15.266610 15.613592 2.281379 2.090652 -87.906363 25.693289 7.809445 -4.544559 5.878304 1.062847 -4.860257 -1.378343 -5.690820 -4.870277 1.409371 10.790105 -19.243103 -13.024236 -2.251219 -0.071581 -1.831062 0.000000 0.000000 0.000000 10.873104 8.872270 1.144847 -44.970170 -10.849782 -6.916738 -179.152090 -75.207221 -179.971799 -3.229646 4.739530 -0.122958 0.044106 0.428736 0.000000 0.000000 0.000000 0.000000 0.000000 0.000000 0.000000 12.396042 -16.264879 2.682953 66.753744 -16.269354 0.777419 1.728607 60.191117 0.014534 1.864341 6.093233 0.098733 0.073162 -0.158143 0.000000 0.000000 0.000000 0.000000 0.000000 0.000000 0.000000 
15.059482 15.590072 2.268626 0.813295 -87.937301 26.783800 8.261786 -4.552763 5.954612 1.165272 -4.877549 -1.377260 -5.666296 -4.887492 1.381021 10.723832 -19.142375 -13.007866 -2.317964 -0.078128 -1.825492 0.000000 0.000000 0.000000 10.798029 8.875510 1.158717 -45.786178 -9.874611 -6.494654 -179.115701 -74.818282 -179.969658 -3.501767 4.704084 -0.132488 0.049857 0.424268 0.000000 0.000000 0.000000 0.000000 0.000000 0.000000 0.000000 12.528313 -16.115476 2.647990 66.463045 -15.829201 0.669077 1.724695 60.555077 0.014652 1.891684 6.002585 0.098742 0.074000 -0.159690 0.000000 0.000000 0.000000 0.000000 0.000000 0.000000 0.000000 
14.854042 15.569890 2.256395 -1.030675 -87.971218 28.498933 8.703419 -4.547986 6.000940 1.262464 -4.883398 -1.383908 -5.647983 -4.893263 1.347780 10.688636 -19.015017 -12.976380 -2.393764 -0.085676 -1.815744 0.000000 0.000000 0.000000 10.750047 8.849930 1.165138 -46.733339 -8.887915 -6.024363 -179.086192 -74.515009 -179.967594 -3.768535 4.676169 -0.141917 0.055960 0.419430 0.000000 0.000000 0.000000 0.000000 0.000000 0.000000 0.000000 12.719651 -15.941385 2.613907 66.148858 -15.290190 0.560715 1.723682 60.868950 0.014752 1.883005 5.926421 0.097053 0.075317 -0.161554 0.000000 0.000000 0.000000 0.000000 0.000000 0.000000 0.000000 
14.650757 15.553140 2.244136 -3.177975 -87.997044 30.577395 9.122375 -4.531170 6.017591 1.352262 -4.878206 -1.397302 -5.635536 -4.887891 1.311002 10.685091 -18.865542 -12.929438 -2.476025 -0.093971 -1.801751 0.000000 0.000000 0.000000 10.732857 8.795317 1.163597 -47.800670 -7.904023 -5.509699 -179.065238 -74.311855 -179.965609 -4.029215 4.655734 -0.151346 0.062449 0.414269 0.000000 0.000000 0.000000 0.000000 0.000000 0.000000 0.000000 12.962880 -15.748763 2.580960 65.832977 -14.658970 0.438767 1.724690 61.134854 0.014830 1.838139 5.870744 0.093766 0.077048 -0.163833 0.000000 0.000000 0.000000 0.000000 0.000000 0.000000 0.000000 
14.450158 15.539716 2.231077 -5.278712 -88.002329 32.667864 9.507145 -4.504913 6.002915 1.432745 -4.863967 -1.416928 -5.628614 -4.873273 1.271992 10.712505 -18.696909 -12.866811 -2.562100 -0.102762 -1.783340 0.000000 0.000000 0.000000 10.750747 8.712796 1.153980 -48.973169 -6.935518 -4.955049 -179.053957 -74.217650 -179.963700 -4.283494 4.641555 -0.160777 0.069339 0.408859 0.000000 0.000000 0.000000 0.000000 0.000000 0.000000 0.000000 13.248962 -15.542193 2.548698 65.539291 -13.947644 0.291623 1.726568 61.358590 0.014884 1.759085 5.839081 0.089081 0.079093 -0.166598 0.000000 0.000000 0.000000 0.000000 0.000000 0.000000 0.000000 
14.252709 15.529482 2.217148 -7.263610 -87.982391 34.696144 9.859091 -4.468287 5.961101 1.504424 -4.839654 -1.441520 -5.626170 -4.848393 1.231305 10.763529 -18.514149 -12.788950 -2.648594 -0.111721 -1.760728 0.000000 0.000000 0.000000 10.794994 8.604399 1.137415 -50.232772 -5.995584 -4.366765 -179.053054 -74.242391 -179.961877 -4.530167 4.631315 -0.170004 0.076532 0.403288 0.000000 0.000000 0.000000 0.000000 0.000000 0.000000 0.000000 13.558229 -15.326367 2.517818 65.290661 -13.165204 0.110226 1.728278 61.546291 0.014911 1.647747 5.832358 0.083097 0.081357 -0.169927 0.000000 0.000000 0.000000 0.000000 0.000000 0.000000 0.000000 
14.058669 15.522174 2.201620 -8.829527 -87.934138 36.354388 10.168081 -4.423477 5.895621 1.565406 -4.806685 -1.469711 -5.628274 -4.814562 1.189500 10.835260 -18.316869 -12.695689 -2.733117 -0.120619 -1.733842 0.000000 0.000000 0.000000 10.864623 8.474844 1.115434 -51.557907 -5.093283 -3.750746 -179.062579 -74.392631 -179.960153 -4.768169 4.622466 -0.178929 0.083893 0.397603 0.000000 0.000000 0.000000 0.000000 0.000000 0.000000 0.000000 13.880066 -15.101176 2.487274 65.108917 -12.326991 -0.111548 1.728226 61.707937 0.014895 1.508182 5.848224 0.075914 0.083693 -0.173869 0.000000 0.000000 0.000000 0.000000 0.000000 0.000000 0.000000 
13.868468 15.517627 2.184330 -9.920254 -87.861494 37.574848 10.431258 -4.370198 5.815668 1.615146 -4.764266 -1.499499 -5.634391 -4.770961 1.146062 10.920446 -18.105613 -12.587484 -2.813268 -0.129215 -1.702919 0.000000 0.000000 0.000000 10.950028 8.328531 1.090214 -52.926290 -4.236256 -3.114741 -179.081970 -74.670353 -179.958555 -4.995295 4.611273 -0.187351 0.091225 0.391875 0.000000 0.000000 0.000000 0.000000 0.000000 0.000000 0.000000 14.198171 -14.865801 2.456914 65.011522 -11.444633 -0.374766 1.724990 61.854041 0.014820 1.343365 5.882640 0.067528 0.085979 -0.178462 0.000000 0.000000 0.000000 0.000000 0.000000 0.000000 0.000000 
13.682182 15.515695 2.165533 -10.640489 -87.770910 38.455427 10.653057 -4.307187 5.728308 1.654816 -4.711083 -1.529646 -5.643225 -4.716367 1.100337 11.008590 -17.880375 -12.464874 -2.886670 -0.137284 -1.668256 0.000000 0.000000 0.000000 11.034367 8.170368 1.064721 -54.316892 -3.428523 -2.466502 -179.110414 -75.078228 -179.957124 -5.208338 4.594673 -0.194968 0.098233 0.386139 0.000000 0.000000 0.000000 0.000000 0.000000 0.000000 0.000000 14.492273 -14.618114 2.426734 65.009952 -10.528400 -0.675380 1.717411 61.994236 0.014665 1.155798 5.930579 0.058043 0.088111 -0.183734 0.000000 0.000000 0.000000 0.000000 0.000000 0.000000 0.000000 
13.500173 15.516345 2.144880 -10.895344 -87.669031 38.886197 10.825197 -4.236331 5.646939 1.682691 -4.647902 -1.557502 -5.654875 -4.651486 1.050905 11.096185 -17.637999 -12.328294 -2.952471 -0.144722 -1.630139 0.000000 0.000000 0.000000 11.110989 8.004600 1.041673 -55.708522 -2.672315 -1.813973 -179.146757 -75.614479 -179.955912 -5.402671 4.569389 -0.201477 0.104639 0.380422 0.000000 0.000000 0.000000 0.000000 0.000000 0.000000 0.000000 14.756049 -14.353983 2.395851 65.110228 -9.588217 -1.005652 1.703996 62.140343 0.014402 0.947366 5.985847 0.047254 0.089973 -0.189682 0.000000 0.000000 0.000000 0.000000 0.000000 0.000000 0.000000 
13.322504 15.519625 2.122450 -10.729640 -87.563074 38.900772 10.945654 -4.158792 5.584597 1.698558 -4.575040 -1.580722 -5.668474 -4.576681 0.996387 11.177589 -17.376494 -12.178352 -3.009672 -0.151417 -1.588985 0.000000 0.000000 0.000000 11.169342 7.834455 1.023922 -57.085770 -1.966159 -1.166405 -179.189944 -76.278080 -179.954965 -5.573958 4.532826 -0.206378 0.110175 0.374730 0.000000 0.000000 0.000000 0.000000 0.000000 0.000000 0.000000 14.980040 -14.070355 2.363895 65.311903 -8.627995 -1.349883 1.683958 62.297750 0.014006 0.718599 6.046634 0.035165 0.091492 -0.196313 0.000000 0.000000 0.000000 0.000000 0.000000 0.000000 0.000000 
13.148540 15.525485 2.099838 -10.561921 -87.450445 38.928442 11.048623 -4.070277 5.525309 1.710267 -4.490720 -1.603788 -5.681403 -4.490620 0.936452 11.235204 -17.097505 -12.016157 -3.057498 -0.157348 -1.544881 0.000000 0.000000 0.000000 11.173618 7.662520 1.014502 -58.432391 -1.305502 -0.522980 -179.239126 -77.063378 -179.954371 -5.713376 4.485636 -0.209470 0.114365 0.369018 0.000000 0.000000 0.000000 0.000000 0.000000 0.000000 0.000000 15.140749 -13.765092 2.330718 65.599129 -7.659084 -1.694187 1.657029 62.485024 0.013444 0.468461 6.100025 0.021673 0.092732 -0.203544 0.000000 0.000000 0.000000 0.000000 0.000000 0.000000 0.000000 
12.978954 15.534180 2.075781 -10.035321 -87.341948 38.585239 11.102348 -3.977970 5.499641 1.710855 -4.398732 -1.620075 -5.695158 -4.396806 0.869208 11.279772 -16.794629 -11.842097 -3.096870 -0.162533 -1.498360 0.000000 0.000000 0.000000 11.141184 7.491650 1.015129 -59.738866 -0.687479 0.103630 -179.293676 -77.971163 -179.954156 -5.817082 4.427263 -0.210653 0.117148 0.363231 0.000000 0.000000 0.000000 0.000000 0.000000 0.000000 0.000000 15.255997 -13.433942 2.294789 65.964873 -6.677539 -2.015496 1.622540 62.699502 0.012696 0.196365 6.151915 0.006778 0.093601 -0.211377 0.000000 0.000000 0.000000 0.000000 0.000000 0.000000 0.000000 
